<mxfile host="app.diagrams.net" modified="2022-05-26T11:41:27.139Z" agent="5.0 (Windows NT 10.0; Win64; x64) AppleWebKit/537.36 (KHTML, like Gecko) Chrome/101.0.0.0 Safari/537.36" etag="ljLkHm4xkU8ewYdfHk4k" version="18.1.2" type="github">
  <diagram id="C5RBs43oDa-KdzZeNtuy" name="Page-1">
    <mxGraphModel dx="1422" dy="762" grid="1" gridSize="10" guides="1" tooltips="1" connect="1" arrows="1" fold="1" page="1" pageScale="1" pageWidth="827" pageHeight="1169" math="0" shadow="0">
      <root>
        <mxCell id="WIyWlLk6GJQsqaUBKTNV-0" />
        <mxCell id="WIyWlLk6GJQsqaUBKTNV-1" parent="WIyWlLk6GJQsqaUBKTNV-0" />
        <mxCell id="DzdL4CI5yvtqsGjWjAdh-9" value="" style="edgeStyle=orthogonalEdgeStyle;rounded=0;orthogonalLoop=1;jettySize=auto;html=1;fontSize=18;" parent="WIyWlLk6GJQsqaUBKTNV-1" target="WIyWlLk6GJQsqaUBKTNV-6" edge="1">
          <mxGeometry relative="1" as="geometry">
            <mxPoint x="230" y="300" as="sourcePoint" />
          </mxGeometry>
        </mxCell>
        <mxCell id="DzdL4CI5yvtqsGjWjAdh-8" value="" style="edgeStyle=orthogonalEdgeStyle;rounded=0;orthogonalLoop=1;jettySize=auto;html=1;fontSize=18;" parent="WIyWlLk6GJQsqaUBKTNV-1" source="WIyWlLk6GJQsqaUBKTNV-6" target="DzdL4CI5yvtqsGjWjAdh-6" edge="1">
          <mxGeometry relative="1" as="geometry" />
        </mxCell>
        <mxCell id="DzdL4CI5yvtqsGjWjAdh-15" style="edgeStyle=orthogonalEdgeStyle;rounded=0;orthogonalLoop=1;jettySize=auto;html=1;entryX=1;entryY=0.5;entryDx=0;entryDy=0;fontSize=18;" parent="WIyWlLk6GJQsqaUBKTNV-1" source="WIyWlLk6GJQsqaUBKTNV-6" edge="1">
          <mxGeometry relative="1" as="geometry">
            <mxPoint x="290" y="280" as="targetPoint" />
            <Array as="points">
              <mxPoint x="310" y="390" />
              <mxPoint x="310" y="280" />
            </Array>
          </mxGeometry>
        </mxCell>
        <mxCell id="WIyWlLk6GJQsqaUBKTNV-6" value="成功提取" style="rhombus;whiteSpace=wrap;html=1;shadow=0;fontFamily=Helvetica;fontSize=18;align=center;strokeWidth=1;spacing=6;spacingTop=-4;" parent="WIyWlLk6GJQsqaUBKTNV-1" vertex="1">
          <mxGeometry x="180" y="350" width="100" height="80" as="geometry" />
        </mxCell>
        <mxCell id="DzdL4CI5yvtqsGjWjAdh-40" value="" style="edgeStyle=orthogonalEdgeStyle;rounded=0;orthogonalLoop=1;jettySize=auto;html=1;fontFamily=Courier New;fontSize=18;" parent="WIyWlLk6GJQsqaUBKTNV-1" source="DzdL4CI5yvtqsGjWjAdh-2" target="DzdL4CI5yvtqsGjWjAdh-39" edge="1">
          <mxGeometry relative="1" as="geometry" />
        </mxCell>
        <mxCell id="DzdL4CI5yvtqsGjWjAdh-2" value="" style="ellipse;whiteSpace=wrap;html=1;shadow=0;fontSize=18;" parent="WIyWlLk6GJQsqaUBKTNV-1" vertex="1">
          <mxGeometry x="170" y="130" width="120" height="80" as="geometry" />
        </mxCell>
        <mxCell id="DzdL4CI5yvtqsGjWjAdh-3" value="開始" style="text;html=1;strokeColor=none;fillColor=none;align=center;verticalAlign=middle;whiteSpace=wrap;rounded=0;shadow=0;fontSize=18;" parent="WIyWlLk6GJQsqaUBKTNV-1" vertex="1">
          <mxGeometry x="200" y="155" width="60" height="30" as="geometry" />
        </mxCell>
        <mxCell id="DzdL4CI5yvtqsGjWjAdh-11" value="" style="edgeStyle=orthogonalEdgeStyle;rounded=0;orthogonalLoop=1;jettySize=auto;html=1;fontSize=18;" parent="WIyWlLk6GJQsqaUBKTNV-1" source="DzdL4CI5yvtqsGjWjAdh-6" target="DzdL4CI5yvtqsGjWjAdh-10" edge="1">
          <mxGeometry relative="1" as="geometry" />
        </mxCell>
        <mxCell id="DzdL4CI5yvtqsGjWjAdh-6" value="分析足壓、&lt;span style=&quot;text-align: right; font-size: 18px;&quot;&gt;肢體角度&lt;/span&gt;" style="rounded=0;whiteSpace=wrap;html=1;shadow=0;fontSize=18;" parent="WIyWlLk6GJQsqaUBKTNV-1" vertex="1">
          <mxGeometry x="170" y="460" width="120" height="60" as="geometry" />
        </mxCell>
        <mxCell id="DzdL4CI5yvtqsGjWjAdh-13" style="edgeStyle=orthogonalEdgeStyle;rounded=0;orthogonalLoop=1;jettySize=auto;html=1;entryX=1;entryY=0.5;entryDx=0;entryDy=0;fontSize=18;" parent="WIyWlLk6GJQsqaUBKTNV-1" source="DzdL4CI5yvtqsGjWjAdh-10" target="DzdL4CI5yvtqsGjWjAdh-6" edge="1">
          <mxGeometry relative="1" as="geometry">
            <Array as="points">
              <mxPoint x="350" y="610" />
              <mxPoint x="350" y="490" />
            </Array>
          </mxGeometry>
        </mxCell>
        <mxCell id="DzdL4CI5yvtqsGjWjAdh-23" value="" style="edgeStyle=orthogonalEdgeStyle;rounded=0;orthogonalLoop=1;jettySize=auto;html=1;fontSize=18;" parent="WIyWlLk6GJQsqaUBKTNV-1" source="DzdL4CI5yvtqsGjWjAdh-10" target="DzdL4CI5yvtqsGjWjAdh-22" edge="1">
          <mxGeometry relative="1" as="geometry" />
        </mxCell>
        <mxCell id="DzdL4CI5yvtqsGjWjAdh-10" value="足壓正確" style="rhombus;whiteSpace=wrap;html=1;rounded=0;shadow=0;fontSize=18;" parent="WIyWlLk6GJQsqaUBKTNV-1" vertex="1">
          <mxGeometry x="152.5" y="560" width="155" height="100" as="geometry" />
        </mxCell>
        <mxCell id="DzdL4CI5yvtqsGjWjAdh-16" value="否" style="text;html=1;align=center;verticalAlign=middle;resizable=0;points=[];autosize=1;strokeColor=none;fillColor=none;fontSize=18;" parent="WIyWlLk6GJQsqaUBKTNV-1" vertex="1">
          <mxGeometry x="307.5" y="315" width="30" height="30" as="geometry" />
        </mxCell>
        <mxCell id="DzdL4CI5yvtqsGjWjAdh-18" value="是" style="text;html=1;align=center;verticalAlign=middle;resizable=0;points=[];autosize=1;strokeColor=none;fillColor=none;fontSize=18;" parent="WIyWlLk6GJQsqaUBKTNV-1" vertex="1">
          <mxGeometry x="240" y="425" width="30" height="30" as="geometry" />
        </mxCell>
        <mxCell id="DzdL4CI5yvtqsGjWjAdh-19" value="否" style="text;html=1;align=center;verticalAlign=middle;resizable=0;points=[];autosize=1;strokeColor=none;fillColor=none;fontSize=18;" parent="WIyWlLk6GJQsqaUBKTNV-1" vertex="1">
          <mxGeometry x="350" y="535" width="30" height="30" as="geometry" />
        </mxCell>
        <mxCell id="DzdL4CI5yvtqsGjWjAdh-21" value="是" style="text;html=1;align=center;verticalAlign=middle;resizable=0;points=[];autosize=1;strokeColor=none;fillColor=none;fontSize=18;" parent="WIyWlLk6GJQsqaUBKTNV-1" vertex="1">
          <mxGeometry x="230" y="525" width="30" height="30" as="geometry" />
        </mxCell>
        <mxCell id="DzdL4CI5yvtqsGjWjAdh-24" style="edgeStyle=orthogonalEdgeStyle;rounded=0;orthogonalLoop=1;jettySize=auto;html=1;fontSize=18;" parent="WIyWlLk6GJQsqaUBKTNV-1" source="DzdL4CI5yvtqsGjWjAdh-22" edge="1">
          <mxGeometry relative="1" as="geometry">
            <mxPoint x="290" y="490" as="targetPoint" />
            <Array as="points">
              <mxPoint x="350" y="740" />
              <mxPoint x="350" y="490" />
            </Array>
          </mxGeometry>
        </mxCell>
        <mxCell id="DzdL4CI5yvtqsGjWjAdh-29" value="" style="edgeStyle=orthogonalEdgeStyle;rounded=0;orthogonalLoop=1;jettySize=auto;html=1;entryX=0.5;entryY=0;entryDx=0;entryDy=0;entryPerimeter=0;fontSize=18;" parent="WIyWlLk6GJQsqaUBKTNV-1" source="DzdL4CI5yvtqsGjWjAdh-22" edge="1">
          <mxGeometry relative="1" as="geometry">
            <mxPoint x="230" y="820" as="targetPoint" />
          </mxGeometry>
        </mxCell>
        <mxCell id="DzdL4CI5yvtqsGjWjAdh-22" value="肢體角度" style="rhombus;whiteSpace=wrap;html=1;rounded=0;shadow=0;fontSize=18;" parent="WIyWlLk6GJQsqaUBKTNV-1" vertex="1">
          <mxGeometry x="152.5" y="690" width="155" height="100" as="geometry" />
        </mxCell>
        <mxCell id="DzdL4CI5yvtqsGjWjAdh-33" value="" style="edgeStyle=orthogonalEdgeStyle;rounded=0;orthogonalLoop=1;jettySize=auto;html=1;fontFamily=Courier New;fontSize=18;" parent="WIyWlLk6GJQsqaUBKTNV-1" target="DzdL4CI5yvtqsGjWjAdh-32" edge="1">
          <mxGeometry relative="1" as="geometry">
            <mxPoint x="230.00000000000023" y="890" as="sourcePoint" />
          </mxGeometry>
        </mxCell>
        <mxCell id="DzdL4CI5yvtqsGjWjAdh-32" value="" style="verticalLabelPosition=bottom;verticalAlign=top;html=1;shape=mxgraph.flowchart.on-page_reference;shadow=0;fontFamily=Courier New;fontSize=18;strokeWidth=1;" parent="WIyWlLk6GJQsqaUBKTNV-1" vertex="1">
          <mxGeometry x="200" y="920" width="60" height="60" as="geometry" />
        </mxCell>
        <mxCell id="DzdL4CI5yvtqsGjWjAdh-34" value="連接1" style="text;html=1;align=center;verticalAlign=middle;resizable=0;points=[];autosize=1;strokeColor=none;fillColor=none;fontSize=18;fontFamily=Courier New;" parent="WIyWlLk6GJQsqaUBKTNV-1" vertex="1">
          <mxGeometry x="200" y="935" width="60" height="30" as="geometry" />
        </mxCell>
        <mxCell id="DzdL4CI5yvtqsGjWjAdh-38" value="" style="edgeStyle=orthogonalEdgeStyle;rounded=0;orthogonalLoop=1;jettySize=auto;html=1;fontFamily=Courier New;fontSize=18;" parent="WIyWlLk6GJQsqaUBKTNV-1" source="DzdL4CI5yvtqsGjWjAdh-35" edge="1">
          <mxGeometry relative="1" as="geometry">
            <mxPoint x="480.0000000000002" y="240" as="targetPoint" />
          </mxGeometry>
        </mxCell>
        <mxCell id="DzdL4CI5yvtqsGjWjAdh-35" value="" style="verticalLabelPosition=bottom;verticalAlign=top;html=1;shape=mxgraph.flowchart.on-page_reference;shadow=0;fontFamily=Courier New;fontSize=18;strokeWidth=1;" parent="WIyWlLk6GJQsqaUBKTNV-1" vertex="1">
          <mxGeometry x="450" y="140" width="60" height="60" as="geometry" />
        </mxCell>
        <mxCell id="DzdL4CI5yvtqsGjWjAdh-36" value="連接1" style="text;html=1;align=center;verticalAlign=middle;resizable=0;points=[];autosize=1;strokeColor=none;fillColor=none;fontSize=18;fontFamily=Courier New;" parent="WIyWlLk6GJQsqaUBKTNV-1" vertex="1">
          <mxGeometry x="450" y="155" width="60" height="30" as="geometry" />
        </mxCell>
        <mxCell id="DzdL4CI5yvtqsGjWjAdh-43" value="" style="edgeStyle=orthogonalEdgeStyle;rounded=0;orthogonalLoop=1;jettySize=auto;html=1;fontFamily=Courier New;fontSize=18;" parent="WIyWlLk6GJQsqaUBKTNV-1" target="DzdL4CI5yvtqsGjWjAdh-42" edge="1">
          <mxGeometry relative="1" as="geometry">
            <mxPoint x="480.0000000000002" y="300" as="sourcePoint" />
          </mxGeometry>
        </mxCell>
        <mxCell id="DzdL4CI5yvtqsGjWjAdh-39" value="&lt;span style=&quot;font-size: 18px;&quot;&gt;雲端提取數據&lt;/span&gt;" style="whiteSpace=wrap;html=1;shadow=0;fontSize=18;" parent="WIyWlLk6GJQsqaUBKTNV-1" vertex="1">
          <mxGeometry x="170" y="250" width="120" height="60" as="geometry" />
        </mxCell>
        <mxCell id="DzdL4CI5yvtqsGjWjAdh-41" value="&lt;span style=&quot;font-family: helvetica; font-size: 18px;&quot;&gt;繪製足壓圖&lt;/span&gt;" style="strokeWidth=1;html=1;shape=mxgraph.flowchart.multi-document;whiteSpace=wrap;shadow=0;fontFamily=Courier New;fontSize=18;align=center;labelPosition=center;verticalLabelPosition=middle;verticalAlign=middle;" parent="WIyWlLk6GJQsqaUBKTNV-1" vertex="1">
          <mxGeometry x="166" y="820" width="124" height="60" as="geometry" />
        </mxCell>
        <mxCell id="DzdL4CI5yvtqsGjWjAdh-46" value="" style="edgeStyle=orthogonalEdgeStyle;rounded=0;orthogonalLoop=1;jettySize=auto;html=1;fontFamily=Courier New;fontSize=18;" parent="WIyWlLk6GJQsqaUBKTNV-1" source="DzdL4CI5yvtqsGjWjAdh-42" target="DzdL4CI5yvtqsGjWjAdh-45" edge="1">
          <mxGeometry relative="1" as="geometry" />
        </mxCell>
        <mxCell id="DzdL4CI5yvtqsGjWjAdh-42" value="存入分數、&lt;br style=&quot;font-size: 18px;&quot;&gt;&lt;div style=&quot;text-align: left; font-size: 18px;&quot;&gt;&lt;span style=&quot;font-size: 18px;&quot;&gt;足壓圖&lt;/span&gt;&lt;/div&gt;" style="strokeWidth=1;html=1;shape=mxgraph.flowchart.direct_data;whiteSpace=wrap;shadow=0;fontFamily=Courier New;fontSize=18;" parent="WIyWlLk6GJQsqaUBKTNV-1" vertex="1">
          <mxGeometry x="420" y="330" width="120" height="60" as="geometry" />
        </mxCell>
        <mxCell id="DzdL4CI5yvtqsGjWjAdh-44" value="統計分數" style="shape=parallelogram;html=1;strokeWidth=1;perimeter=parallelogramPerimeter;whiteSpace=wrap;rounded=1;arcSize=12;size=0.23;shadow=0;fontFamily=Courier New;fontSize=18;" parent="WIyWlLk6GJQsqaUBKTNV-1" vertex="1">
          <mxGeometry x="415" y="240" width="130" height="60" as="geometry" />
        </mxCell>
        <mxCell id="DzdL4CI5yvtqsGjWjAdh-49" value="" style="edgeStyle=orthogonalEdgeStyle;rounded=0;orthogonalLoop=1;jettySize=auto;html=1;fontFamily=Courier New;fontSize=18;" parent="WIyWlLk6GJQsqaUBKTNV-1" source="DzdL4CI5yvtqsGjWjAdh-45" target="DzdL4CI5yvtqsGjWjAdh-48" edge="1">
          <mxGeometry relative="1" as="geometry" />
        </mxCell>
        <mxCell id="DzdL4CI5yvtqsGjWjAdh-45" value="網站存取資料" style="whiteSpace=wrap;html=1;fontSize=18;fontFamily=Courier New;strokeWidth=1;shadow=0;" parent="WIyWlLk6GJQsqaUBKTNV-1" vertex="1">
          <mxGeometry x="420" y="440" width="120" height="60" as="geometry" />
        </mxCell>
        <mxCell id="DzdL4CI5yvtqsGjWjAdh-50" style="edgeStyle=orthogonalEdgeStyle;rounded=0;orthogonalLoop=1;jettySize=auto;html=1;exitX=1;exitY=0.5;exitDx=0;exitDy=0;entryX=1;entryY=0.5;entryDx=0;entryDy=0;fontFamily=Courier New;fontSize=18;" parent="WIyWlLk6GJQsqaUBKTNV-1" source="DzdL4CI5yvtqsGjWjAdh-48" target="DzdL4CI5yvtqsGjWjAdh-45" edge="1">
          <mxGeometry relative="1" as="geometry">
            <Array as="points">
              <mxPoint x="570" y="570" />
              <mxPoint x="570" y="470" />
            </Array>
          </mxGeometry>
        </mxCell>
        <mxCell id="DzdL4CI5yvtqsGjWjAdh-55" value="" style="edgeStyle=orthogonalEdgeStyle;rounded=0;orthogonalLoop=1;jettySize=auto;html=1;fontFamily=Courier New;fontSize=18;" parent="WIyWlLk6GJQsqaUBKTNV-1" source="DzdL4CI5yvtqsGjWjAdh-48" target="DzdL4CI5yvtqsGjWjAdh-54" edge="1">
          <mxGeometry relative="1" as="geometry" />
        </mxCell>
        <mxCell id="DzdL4CI5yvtqsGjWjAdh-48" value="存取成功" style="rhombus;whiteSpace=wrap;html=1;fontSize=18;fontFamily=Courier New;strokeWidth=1;shadow=0;" parent="WIyWlLk6GJQsqaUBKTNV-1" vertex="1">
          <mxGeometry x="440" y="530" width="80" height="80" as="geometry" />
        </mxCell>
        <mxCell id="DzdL4CI5yvtqsGjWjAdh-51" value="否" style="text;html=1;align=center;verticalAlign=middle;resizable=0;points=[];autosize=1;strokeColor=none;fillColor=none;fontSize=18;" parent="WIyWlLk6GJQsqaUBKTNV-1" vertex="1">
          <mxGeometry x="570" y="505" width="30" height="30" as="geometry" />
        </mxCell>
        <mxCell id="DzdL4CI5yvtqsGjWjAdh-52" value="否" style="text;html=1;align=center;verticalAlign=middle;resizable=0;points=[];autosize=1;strokeColor=none;fillColor=none;fontSize=18;" parent="WIyWlLk6GJQsqaUBKTNV-1" vertex="1">
          <mxGeometry x="350" y="655" width="30" height="30" as="geometry" />
        </mxCell>
        <mxCell id="DzdL4CI5yvtqsGjWjAdh-53" value="是" style="text;html=1;align=center;verticalAlign=middle;resizable=0;points=[];autosize=1;strokeColor=none;fillColor=none;fontSize=18;" parent="WIyWlLk6GJQsqaUBKTNV-1" vertex="1">
          <mxGeometry x="230" y="785" width="30" height="30" as="geometry" />
        </mxCell>
        <mxCell id="DzdL4CI5yvtqsGjWjAdh-59" value="" style="edgeStyle=orthogonalEdgeStyle;rounded=0;orthogonalLoop=1;jettySize=auto;html=1;fontFamily=Courier New;fontSize=18;" parent="WIyWlLk6GJQsqaUBKTNV-1" source="DzdL4CI5yvtqsGjWjAdh-54" target="DzdL4CI5yvtqsGjWjAdh-58" edge="1">
          <mxGeometry relative="1" as="geometry" />
        </mxCell>
        <mxCell id="DzdL4CI5yvtqsGjWjAdh-54" value="呈現網站" style="shape=document;whiteSpace=wrap;html=1;boundedLbl=1;fontSize=18;fontFamily=Courier New;strokeWidth=1;shadow=0;" parent="WIyWlLk6GJQsqaUBKTNV-1" vertex="1">
          <mxGeometry x="420" y="660" width="120" height="80" as="geometry" />
        </mxCell>
        <mxCell id="DzdL4CI5yvtqsGjWjAdh-58" value="結束" style="ellipse;whiteSpace=wrap;html=1;fontSize=18;fontFamily=Courier New;strokeWidth=1;shadow=0;" parent="WIyWlLk6GJQsqaUBKTNV-1" vertex="1">
          <mxGeometry x="420" y="830" width="120" height="60" as="geometry" />
        </mxCell>
      </root>
    </mxGraphModel>
  </diagram>
</mxfile>
